<svg xmlns="http://www.w3.org/2000/svg" xmlns:xlink="http://www.w3.org/1999/xlink" width="256" height="256" version="1.1" viewBox="0 0 256 256"><title>Artboard</title><g id="Artboard" fill="none" fill-rule="evenodd" stroke="none" stroke-linecap="square" stroke-width="1"><g id="Group" transform="translate(0, -1)"><line id="Line" x1="8.25" x2="8.25" y1=".5" y2="256.5"/><line id="Line-Copy" x1="48.25" x2="48.25" y1=".5" y2="256.5"/><line id="Line-Copy-2" x1="88.25" x2="88.25" y1=".5" y2="256.5"/><line id="Line-Copy-3" x1="128.25" x2="128.25" y1=".5" y2="256.5"/><line id="Line-Copy-4" x1="168.25" x2="168.25" y1=".5" y2="256.5"/><line id="Line-Copy-5" x1="208.25" x2="208.25" y1=".5" y2="256.5"/><line id="Line-Copy-6" x1="248.25" x2="248.25" y1=".5" y2="256.5"/><line id="Line-Copy" x1="0" x2="256" y1="208.75" y2="208.75"/><line id="Line-Copy-2" x1="0" x2="256" y1="168.75" y2="168.75"/><line id="Line-Copy-3" x1="0" x2="256" y1="128.75" y2="128.75"/><line id="Line-Copy-4" x1="0" x2="256" y1="88.75" y2="88.75"/><line id="Line-Copy-5" x1="0" x2="256" y1="48.75" y2="48.75"/><line id="Line-Copy-6" x1="0" x2="256" y1="8.75" y2="8.75"/></g><line id="Line" x1="0" x2="256" y1="247.75" y2="247.75"/></g></svg>